<?xml version="1.0" encoding="utf-8"?>
<!DOCTYPE svg PUBLIC "-//W3C//DTD SVG 1.1//EN" "http://www.w3.org/Graphics/SVG/1.1/DTD/svg11.dtd">
<svg version="1.1" id="Layer_1" xmlns="http://www.w3.org/2000/svg" xmlns:xlink="http://www.w3.org/1999/xlink" x="0px" y="0px"
	 viewBox="-90.0695 471.1953 1919.1276 1463.0939" enable-background="new -90.0695 471.1953 1919.1276 1463.0939"
	 xml:space="preserve">
<g id="_x23_ffffffff">
</g>
<g id="_x23_000000ff" fill="#fff">
	<path stroke="#000000" stroke-width="0.0938" d="M-43.7898,502.1742l0.3056-0.2259c3.5582,1.1132,7.2802,0.2775,10.9238,0.3452
		c39.5113-0.6129,79.0225,0.4903,118.5064,1.7753c16.7492,0.7404,33.5816,0.7353,50.2161,3.0029
		c20.078,2.6199,39.8439,7.7957,58.4845,15.7056c33.1625,14.2007,63.3272,36.8464,83.6092,66.9324
		c-8.524,0.5298-17.1877,0.1805-25.4499-2.0818c-5.4186-1.3423-9.9189-5.5643-15.7321-5.4213
		c-7.4735-0.3708-13.9451,5.2076-16.3194,12.023c-3.9038,10.7187-2.6589,22.4818-0.7786,33.4893
		c3.4028,18.3005,9.4866,36.174,18.9191,52.269c14.0021,24.3815,32.342,45.9677,51.7093,66.2349
		c31.8559,32.96,67.1267,62.4139,103.4203,90.341c16.3312,12.3397,32.5771,24.8668,49.8273,35.9429
		c4.6958,2.8712,9.392,5.9785,14.6945,7.618c1.23,0.5707,2.3478-0.2554,3.4374-0.7498c-1.4751-5.2266-4.8384-9.5925-8.0341-13.8831
		c-11.0574-14.2725-23.3541-27.5297-35.6028-40.7726c-33.2627-35.6879-68.5548-69.4781-100.3821-106.4879
		c-16.2266-18.9451-32.3045-38.2612-44.7635-59.9657c-4.6258-8.5309-9.1876-17.6314-9.5918-27.5165
		c-0.3835-6.5929,3.3907-13.6844,10.0379-15.5255c8.4982-2.264,17.2849,0.5061,25.3216,3.2709
		c19.2804,7.3625,36.8869,18.3991,53.8595,29.9913c-7.1903-1.6868-15.0499-2.6304-22.1055,0.1218
		c-4.5801,1.6937-7.7156,6.1496-8.3233,10.9135c-1.0002,7.6651,1.4562,15.2626,4.1843,22.3361
		c6.0617,14.7812,14.7283,28.3088,23.6936,41.4664c15.7655,22.78,33.4488,44.1674,51.8832,64.8382
		c33.6957,37.519,69.9944,72.6544,107.6162,106.215c13.6243,11.8906,27.0305,24.0916,41.5304,34.9123
		c-1.7937-4.0087-4.1074-7.7452-6.4092-11.4655c-12.1815-19.6466-24.8371-38.9924-37.3039-58.4531
		c-13.9047-21.7428-28.1297-43.4478-38.7312-67.0472c-5.3249-12.354-10.1497-25.5624-9.3071-39.2288
		c0.4566-8.855,4.7392-17.429,11.8216-22.8371c9.6399-7.5841,22.3541-10.9743,34.4964-9.2665
		c16.713,2.1722,31.8911,10.4276,45.6575,19.751c16.468,11.3807,31.3968,24.9185,44.8989,39.6722
		c-19.2466-2.538-39.292-0.9916-57.4879,6.002c-5.4776,1.9094-10.3148,5.7452-12.9099,10.983
		c-3.5889,7.1908-3.3563,15.5987-1.7985,23.2758c3.1115,14.5244,10.3421,27.7579,18.3169,40.1305
		c14.2697,21.5974,31.8386,40.7939,50.376,58.7773c11.7661,11.0754,23.4272,22.2781,34.6351,33.9276
		c49.3469,51.008,94.2628,106.0987,137.2352,162.5137c-0.912-7.6447-4.6212-14.5651-7.4214-21.635
		c-5.1431-11.1826-9.6313-22.7747-16.5751-33.012c-8.2437-12.5345-17.7699-24.1461-27.3286-35.684
		c-38.2825-45.3576-79.9525-87.6771-120.0204-131.4293c-11.0157-11.6921-19.1826-26.5962-20.8646-42.7365
		c-1.0556-9.9756,0.5445-20.7327,6.7323-28.8991c4.9829-6.6169,13.263-10.2866,21.495-9.9664
		c12.7395,0.396,24.2692,6.9956,34.2894,14.3626c18.3793,13.4622,31.2556,32.7197,43.4323,51.6362
		c21.9413,35.2759,40.1815,72.6777,57.6179,110.3378c19.1514,41.7643,36.8441,84.1964,53.6965,126.9385
		c6.7664,17.5182,13.8776,34.9309,19.3366,52.918c7.5397,23.5619,15.4462,47.0143,22.7755,70.6447
		c-3.4084-2.4921-5.7029-6.1184-8.2579-9.3906c-29.0496-39.5103-65.6036-73.3253-106.8314-99.8192
		c-13.641-8.3966-29.0106-13.6134-44.605-16.9976c-21.0627-4.491-42.6292-5.9114-64.1123-6.4111
		c-33.8882-0.6455-67.7613,1.0852-101.6465,1.1338c-34.4565-0.0514-69.43-1.3746-102.7449-10.9862
		c-32.343-9.3228-62.6432-28.9213-80.591-57.8848c-19.2389-30.7947-24.2273-68.9749-18.2749-104.3978
		c15.2392,23.6663,34.3484,44.7958,56.0343,62.7155c12.83,10.7989,27.0927,19.8179,42.1795,27.1087
		c31.7044,15.3403,65.8459,25.1619,100.4138,31.5222c29.0734,5.2855,58.6256,7.9044,88.1847,7.8573
		c25.9241,0.6371,50.8939,9.2538,74.3342,19.7717c22.9413,10.3643,44.55,23.3673,66.008,36.4692
		c3.6823,1.9541,7.1135,4.9143,11.4493,5.229c-5.6467-9.5421-13.9432-17.1509-21.1183-25.5138
		c-18.5991-21.146-41.593-38.783-67.9612-49.0394c-28.9211-11.5406-60.0691-15.0568-90.5204-20.3561
		c-30.9489-5.0808-61.6878-12.4182-90.7684-24.3259c-32.3462-13.1129-63.3483-31.0363-87.7183-56.3232
		c-17.2675-17.9644-31.1942-39.9894-36.172-64.6612c17.3985,18.6634,36.2997,35.8434,55.3161,52.8262
		c13.1482,11.9192,28.9695,20.5572,45.4812,26.882c14.8052,5.5468,30.3587,9.6327,46.2289,10.2269
		c6.2313,0.12,12.7133-0.1442,18.4798-2.7396c3.1678-1.3836,6.0334-4.1354,6.4287-7.7228
		c0.4905-4.6026-1.8573-8.8734-4.2388-12.6343c-6.7697-10.254-15.5122-18.988-24.3146-27.4664
		c-15.3076-14.5386-31.6273-27.9562-48.0884-41.1448c-36.9694-29.38-75.2045-57.0908-113.1733-85.1478
		c-33.354-24.7403-66.9679-49.2264-98.6466-76.1249c-12.2528-10.6909-24.7069-21.4691-34.4183-34.61
		c-4.0887-5.011-4.7658-11.934-9.3328-16.6163c-7.8523-8.7578-18.2446-14.6933-28.6216-19.9688
		c-17.6615-8.621-36.554-14.5667-55.8113-18.4148c-23.1453-4.4316-47.0991-5.9529-70.4352-2.0617
		c-6.8723,1.4355-14.4555,2.986-19.3739,8.4114c-3.3019,3.6588-2.409,9.1912-0.0184,13.0822
		c5.5401,9.0614,14.3111,15.4615,22.7982,21.5616c21.1802,14.476,44.311,25.7697,67.5985,36.4005
		c19.8894,8.9268,40.0999,17.1437,60.4939,24.852c14.9321,5.7017,30.1838,10.6075,44.6865,17.3602
		c20.1457,9.1725,39.3927,20.7128,55.8216,35.6412c16.2744,14.7194,29.5244,33.1534,36.585,54.0479
		c5.0981,15.2944,7.2853,31.8323,4.6342,47.83c-3.4352-28.423-15.9941-56.6564-38.4425-75.0695
		c-11.7819-9.1115-26.1239-13.9809-40.0708-18.7195c-22.6528-7.3323-45.7542-13.1516-68.6224-19.7153
		c-44.5036-12.6708-88.9791-27.3394-128.9987-51.0207c-11.4056-6.6168-22.1865-14.4412-31.3797-23.9363
		c-19.5344-19.8205-32.1588-45.5684-38.9938-72.3493c-7.7308-30.4834-8.9614-62.4009-5.3211-93.5659
		c2.5651,8.3503,7.027,16.02,12.4068,22.8622c13.2596,16.7982,32.2936,28.1849,52.3619,35.0148
		c25.6648,8.7496,53.0762,10.9113,80.0242,10.1577c18.2115-0.7133,36.7283-2.7465,53.7298-9.6906
		c7.2983-3.1305,14.7404-7.362,18.916-14.3647c2.8233-4.7101,2.6507-10.8495-0.2506-15.4821
		c-4.4899-7.3879-12.2096-11.9786-19.798-15.6343c-15.8001-7.3978-33.1351-10.4284-50.2202-13.1712
		c-47.7164-8.3193-95.1834-18.2529-141.9715-30.8518c-0.9965-0.221-2.0132-0.4023-3.0282-0.5474
		C-42.6973,503.232-43.4283,502.5288-43.7898,502.1742z"/>
	<path stroke="#000000" stroke-width="0.0938" d="M-87.4488,549.4349c0.6939-3.0992,1.5302-6.8134,4.79-8.1904
		c1.4076,4.8661,1.6157,9.9597,2.1863,14.9718c3.3235,36.6004,7.4808,73.5047,18.9011,108.6103
		c6.2957,18.749,14.6941,37.3987,28.6249,51.7735c15.2747,15.8063,33.2737,29.0399,53.1819,38.4127
		c26.5998,12.8583,55.6997,18.92,84.0215,26.6884c33.7711,10.4308,68.7188,16.5479,102.3934,27.3361
		c14.9416,4.9236,29.7971,10.7068,42.9412,19.5079c9.2818,6.2838,17.6555,14.5691,21.9452,25.1017
		c8.4442,19.8221,15.5687,40.719,16.4154,62.4255c-9.2763-20.0901-20.4652-39.5376-35.4154-55.9816
		c-8.2841-9.0728-17.6599-17.3512-28.6078-23.0627c-13.5642-7.098-28.7321-10.5613-43.884-12.0344
		c-16.675-1.6158-33.4697-1.0045-50.1484,0.1677c-14.3927,1.1863-28.9586,2.8115-42.5688,7.8834
		c-6.2214,2.4341-12.7553,5.808-16.0644,11.8968c-2.4034,4.4371-1.5301,9.9095,0.858,14.1505
		c3.6061,6.5116,9.3972,11.4706,15.3589,15.7689c16.1838,11.1306,35.4066,18.1626,55.1225,18.8119
		c18.9627,0.808,37.8996-3.2143,55.4714-10.1943c-11.367,17.0922-29.5909,29.1797-49.3775,34.29
		c-21.2194,5.5102-43.7261,2.9691-64.4332-3.4634c-24.2712-7.8397-47.1904-19.9239-67.4818-35.3677
		c-30.7696-23.666-54.0901-55.9456-70.3871-90.9536c-18.6606-40.1749-29.0747-83.7955-33.8224-127.7242
		c-3.2031-27.8733-2.7605-55.9789-2.1987-83.9736C-89.2532,567.3186-89.1054,558.2814-87.4488,549.4349z"/>
	<path stroke="#000000" stroke-width="0.0938" d="M449.6178,486.4219c4.8906-6.8596,12.4674-12.3223,21.0662-12.9695
		c10.1135-0.7346,19.6335,4.1048,27.6616,9.7857c15.0852,10.9229,27.1412,25.4024,38.3937,40.0903
		c26.7041,35.7476,48.1613,75.0121,68.8813,114.4235c31.2836,60.1666,60.7107,121.27,89.8087,182.5171
		c54.5654,115.1924,107.3089,231.2339,159.4727,347.5175c-5.2699-8.5275-8.8734-17.9633-13.3282-26.9189
		c-39.9445-86.4064-79.7023-172.9135-121.3765-258.514c-26.8981-55.2755-54.3802-110.281-83.6168-164.3629
		c-19.1033-34.9858-38.6115-69.8466-61.1333-102.7785c-8.4297-11.9619-17.0891-23.9653-27.8728-33.9637
		c-5.1992-4.9489-11.7197-8.287-18.4634-10.6147c-3.2296-0.9208-7.3433-2.0959-10.0547,0.629
		c-2.5516,3.9001-0.7104,8.8312,0.519,12.884c5.1719,13.6108,13.0919,26.1111,22.2405,37.38
		c14.8873,15.1476,27.7235,32.1467,40.5164,49.0535c-3.9082-1.6877-7.0533-4.6479-10.4055-7.1817
		c-19.1009-15.5153-37.0275-32.4704-53.7867-50.4872c-13.029-14.3325-25.8378-29.2753-34.7195-46.6105
		c-3.1061-6.5081-6.2842-13.8707-4.5463-21.2106c1.6008-6.3308,8.3001-9.3296,14.2479-10.1316
		c10.64-1.3848,21.4095,0.4173,31.7459,2.9624c-6.1207-11.8156-13.5295-23.0521-22.6128-32.8026
		c-5.8991-6.0978-12.724-11.9342-21.1006-14.1494c-5.5484-1.3832-12.0577-0.9372-16.4817,3.0036
		c-4.1932,3.8325-5.2097,9.8434-5.136,15.2601c0.1465,9.2672,2.9836,18.1875,5.9482,26.8767
		c-6.888-8.7989-12.8455-18.5093-16.4485-29.139C446.9049,500.4011,445.7719,492.6089,449.6178,486.4219z"/>
	<path stroke="#000000" stroke-width="0.0938" d="M-28.541,875.2032c80.3409,60.1712,161.0776,119.8011,242.0363,179.1426
		c64.3003,46.6095,136.4026,81.3478,210.2726,109.9304c48.3566,18.4901,97.7088,34.4912,147.9555,47.0084
		c-27.4154,0.1044-54.7946-2.3671-82.0213-5.4735c-39.8203-4.9036-79.4024-12.3954-117.8454-23.9993
		c-37.1395-11.5227-73.2739-26.0264-108.9947-41.3331c-52.7345-23.0511-104.737-48.0732-154.2078-77.5775
		c-16.2331-9.8009-32.2348-20.0962-47.0493-31.9652c-8.8377-7.1465-17.445-14.9236-23.4441-24.6902
		C19.9007,978.1721,4.8623,948.1651-9.4726,917.949C-16.0588,903.8042-22.5747,889.6198-28.541,875.2032z"/>
	<path stroke="#000000" stroke-width="0.0938" d="M77.2142,1070.4313c23.016,22.4453,50.5438,39.5542,78.4458,55.2177
		c40.3782,22.1979,82.7922,40.454,125.9194,56.5791c31.5564,11.6572,63.3839,22.8904,96.2028,30.5184
		c61.7366,14.5706,125.3385,20.1901,188.6992,20.0319c41.6941-0.1495,83.3779-2.803,124.7737-7.7307
		c23.2968-2.8674,46.5451-6.2213,69.5392-10.979c-0.7595,2.2028-3.5798,2.5088-5.3651,3.5422
		c-17.5882,6.7559-35.8268,11.6052-53.9666,16.6051c-22.9965,6.2017-46.1135,11.9205-69.2923,17.3369
		c-26.3903,6.1857-52.8398,12.241-79.6321,16.4358c-61.3087,9.783-123.3757,15.3767-185.4907,15.2858
		c-36.3166-0.3306-72.9092-2.3472-108.3857-10.61c-18.1426-4.5104-36.5225-10.5364-51.3982-22.2357
		c-16.6507-14.118-30.9554-30.7655-44.5958-47.7423c-19.0548-24.3032-36.4305-49.8846-52.7477-76.0865
		C98.5442,1108.161,87.4014,1089.5498,77.2142,1070.4313z"/>
	<path stroke="#000000" stroke-width="0.0938" d="M1212.0844,512.5357c9.9629-12.262,20.6676-24.2266,33.8568-33.1157
		c7.4666-4.8714,16.2212-8.8916,25.3575-8.071c7.6541,0.5981,14.4017,5.1859,19.3118,10.8707
		c2.6371,2.9627,3.9711,6.9382,4.0153,10.8846c0.1854,7.4355-2.6248,14.5358-5.7616,21.1439
		c-3.4238,6.7579-7.3662,13.3022-12.0962,19.235c2.1816-7.5808,4.837-15.1262,5.3152-23.077
		c0.5054-6.4166,0.0353-13.7661-4.9175-18.4991c-4.9824-4.4874-12.5103-4.5446-18.557-2.4632
		c-8.8809,3.1934-15.8608,9.9681-21.9741,16.9232c-7.6641,9.0461-14.181,19.0723-19.4961,29.6651
		c9.509-2.377,19.3473-4.0895,29.1866-3.3779c5.3127,0.4755,11.1174,1.8186,14.6729,6.1418
		c2.942,3.6949,3.092,8.7941,2.1466,13.2355c-1.8474,8.4032-6.2091,15.9786-10.6923,23.221
		c-11.2496,17.453-25.2175,32.9606-39.6329,47.8292c-11.6259,11.8121-23.6886,23.2012-36.3247,33.9322
		c-5.1749,4.0855-9.9857,8.9836-15.96,11.8195c12.7-17.2067,25.731-34.285,40.5923-49.6945
		c7.1326-8.8398,13.1733-18.5514,18.1376-28.7606c2.3052-4.9739,4.5698-10.1539,5.0569-15.6866
		c0.2281-2.5684-0.46-5.9395-3.3431-6.6438c-4.8921-1.1346-9.6757,1.3436-14.0491,3.2328
		c-8.7648,3.7542-15.4271,10.8413-21.571,17.906c-12.5369,14.7858-23.1003,31.0977-33.4023,47.4773
		c-21.4866,34.829-40.9318,70.8725-59.8804,107.1335c-66.5662,128.575-126.2879,260.5222-186.2841,392.2497
		c-4.7856,10.1144-9.1289,20.474-14.4467,30.3226c14.6535-34.4174,30.1847-68.4884,45.3309-102.7103
		c34.3295-76.8113,69.0898-153.4436,104.5717-229.7388c33.8157-72.2909,67.8169-144.5325,104.8494-215.2466
		C1165.6871,581.9016,1186.2001,545.3176,1212.0844,512.5357z"/>
	<path stroke="#000000" stroke-width="0.0938" d="M280.745,1329.7699c-0.6301-3.6626-0.2704-8.1563,3.064-10.4587
		c5.7962-3.1271,12.6459-1.0767,18.5621,0.6193c16.6006,5.6373,31.5957,15.1595,45.6411,25.483
		c11.5858,9.1321,23.7499,17.6503,37.012,24.1881c15.7449,7.8615,33.0982,13.3903,50.8418,13.2216
		c14.3413-0.1287,28.9787-4.5173,40.0112-13.9016c7.1583-5.9615,11.2162-15.5631,9.8778-24.8448
		c-2.2774-17.3666-19.4609-30.7922-36.7942-29.5468c-19.5629,0.9039-36.667,14.4393-45.4771,31.4076
		c-0.8746-12.0865,0.7109-25.0337,7.7052-35.2385c5.4753-8.0875,15.0449-12.536,24.6269-13.0643
		c12.6518-0.7826,25.0404,2.8571,37.0682,6.3281c14.3389,4.1754,27.4807,11.6104,41.8566,15.6342
		c14.6721,4.0037,30.0154-0.0861,43.6577-5.7538c44.643-19.2271,89.7471-38.0488,137.0157-49.8531
		c17.1687-4.0088,34.7759-7.5085,52.4971-6.4792c9.3948,0.4803,18.8091,3.309,26.2313,9.2635
		c1.0293,0.9553,2.3113,2.0844,2.4846,3.5977c-0.4792,2.1447-2.9264,2.5853-4.689,3.2289
		c-7.1685,1.7415-14.575,2.0671-21.9035,2.6833c-22.682,1.6299-45.5474,2.8602-67.7549,8.0935
		c-45.8557,12.2523-89.5131,33.2504-126.9549,62.5247c-23.5088,18.1443-44.2941,39.486-64.1183,61.5225
		c-10.9307,11.9451-21.4942,24.3027-33.708,34.9827c-9.7969,8.583-21.7755,16.2666-35.2574,16.1953
		c-12.7291,0.1061-24.0342-6.5599-34.5695-12.9246c-38.7151-24.0361-73.8767-55.3613-97.4893-94.6992
		C286.1875,1345.0087,282.2126,1337.7625,280.745,1329.7699z"/>
	<path stroke="#000000" stroke-width="0.0938" d="M1143.5771,778.8263c14.2452-15.6877,30.0571-30.0464,47.6592-41.8983
		c12.6249-8.2731,26.4282-15.4897,41.5168-17.7872c13.8962-2.2618,28.8379,2.0898,38.8999,12.0372
		c6.8678,6.8367,9.3624,16.9426,8.5876,26.3934c-1.0209,13.7111-6.2905,26.6702-12.0538,39.0118
		c-8.6116,18.0276-19.1699,35.0195-29.7856,51.9169c-13.6949,21.5978-27.5332,43.1026-40.9712,64.8461
		c-2.6527,4.6214-5.9414,8.9543-7.735,13.9977c16.62-12.6929,32.0507-26.8942,47.6238-40.8525
		c35.9825-32.7965,70.6915-67.0641,102.8944-103.5956c17.2979-19.7343,33.8766-40.1556,48.7181-61.8173
		c8.6111-12.5936,16.7373-25.6244,22.8386-39.6457c3.0085-7.4209,5.8442-15.3111,5.2557-23.4434
		c-0.2961-5.0782-3.2828-10.0955-8.0951-12.0475c-7.0107-3.0257-14.8889-1.8913-22.1334-0.4544
		c16.396-11.5325,33.582-22.2313,52.2671-29.6735c7.708-2.8116,15.9713-5.5113,24.2787-4.2645
		c6.1001,0.8511,11.0015,6.0698,11.8527,12.118c1.1501,7.9163-1.7408,15.6981-4.8434,22.8403
		c-7.9178,16.9305-19.1747,32.0013-30.5709,46.7152c-27.7839,35.0065-58.8405,67.2339-89.9137,99.2872
		c-17.9271,18.7817-35.8208,37.6259-52.6787,57.3832c-5.7308,6.8837-11.5934,13.7405-16.2617,21.4057
		c-1.047,2.1166-2.9965,4.5769-1.5232,6.9574c4.6125-0.3375,8.5714-2.9895,12.5249-5.1777
		c11.6925-7.1116,22.7184-15.2598,33.6824-23.4246c38.2455-28.6744,75.45-58.8923,109.6016-92.3998
		c19.1826-19.001,37.4847-39.0421,52.9738-61.2073c10.2771-14.8318,19.4213-30.6915,24.9435-47.9529
		c4.1913-13.7788,7.7781-28.0058,7.6084-42.5034c-0.2134-7.4398-1.425-15.4225-6.4199-21.2559
		c-3.6709-4.412-9.7836-6.3232-15.3455-5.2345c-4.233,0.7161-7.6078,3.6203-11.6602,4.7997
		c-8.5497,2.7497-17.6663,3.0833-26.5696,2.6624c10.9462-17.2411,25.9402-31.6296,42.1631-43.8672
		c33.922-25.355,75.7489-38.9198,117.8156-41.4087c39.0582-1.882,78.1429-3.2739,117.2418-3.8056
		c14.6943-0.0042,29.4384-0.5301,44.1038,0.4695c-42.6289,12.1431-85.9866,21.5671-129.5182,29.8637
		c-18.5813,3.7968-37.6591,5.66-55.652,11.9691c-9.4598,3.3352-18.8939,7.5468-26.2651,14.4988
		c-3.9915,3.8699-7.403,9.1639-6.7837,14.9484c0.6759,7.0729,6.3583,12.4232,12.083,16.0138
		c10.951,6.6915,23.6802,9.6815,36.2323,11.7083c17.4381,2.5812,35.151,2.8084,52.7285,1.7925
		c21.6122-1.3613,43.3004-5.2781,63.2834-13.8412c24.0466-10.1984,46.1593-28.6166,54.8544-53.9178
		c4.1954,32.6485,2.5559,66.2517-6.1151,98.0633c-7.7753,28.1778-22.403,54.991-44.527,74.4372
		c-10.1654,9.2285-22.0552,16.2245-33.9686,22.9026c-34.9072,19.2939-72.8007,32.3765-110.9275,43.6793
		c-19.0884,5.6513-38.3096,10.8537-57.4116,16.4528c-15.1968,4.5908-30.474,9.241-44.8171,16.1478
		c-7.4092,3.5356-14.2528,8.2574-20.0201,14.0989c-18.8107,18.7136-29.5243,44.6485-32.0333,70.8495
		c-3.1028-18.8704-0.2263-38.4666,7.0364-56.0817c6.7388-16.5068,17.3672-31.2501,30.0853-43.6705
		c15.8376-15.4845,34.7532-27.5111,54.6317-37.141c19.5342-9.5742,40.3859-15.969,60.5062-24.1611
		c25.0647-9.9312,49.8845-20.564,73.9513-32.7543c17.9436-9.2195,35.8029-18.9735,51.5531-31.6826
		c6.0127-5.1897,12.5123-10.7639,15.1353-18.5215c1.4565-4.0358-0.1725-8.7134-3.6351-11.178
		c-6.2473-4.6342-14.1744-5.9382-21.6787-7.0573c-22.2842-2.8795-44.9744-1.2438-66.9364,3.2112
		c-19.9399,4.1792-39.5133,10.537-57.6321,19.9233c-8.0526,4.2973-15.9982,9.0252-22.6311,15.3445
		c-3.1473,3.0098-6.1115,6.419-7.6327,10.5522c-3.0093,8.951-9.7208,15.9378-16.0009,22.7175
		c-17.7874,18.2308-37.7621,34.1241-57.6743,49.9338c-59.3595,46.4418-121.2479,89.5796-179.8939,136.9363
		c-18.9055,15.4389-37.6752,31.1627-54.5564,48.8359c-6.2931,6.9137-12.7651,13.9721-16.7516,22.5261
		c-1.8859,3.9428-2.3234,9.2399,1.1577,12.4865c4.65,4.2731,11.3253,4.9603,17.3611,5.2869
		c14.478,0.3422,28.7856-2.9448,42.501-7.3359c14.8331-4.9313,29.1508-11.6204,41.9984-20.5677
		c7.7655-5.2913,14.4546-11.9382,21.4528-18.1669c15.592-14.3702,31.2063-28.7944,45.4777-44.5138
		c-3.4644,19.558-13.2988,37.4449-25.4426,52.9475c-24.4346,30.8402-58.8224,52.1997-94.7083,67.3425
		c-21.9564,9.3251-44.9015,16.1851-68.2072,21.1606c-34.954,7.7892-71.0736,10.4341-105.1809,21.8255
		c-23.0983,7.595-44.4503,20.2784-62.2141,36.8752c-8.8126,7.98-16.5406,17.0237-24.4593,25.8599
		c-3.5729,4.0829-7.1857,8.1454-10.4087,12.5167c-0.8483,1.1741-1.9672,2.4363-1.2901,3.9751
		c9.3207-4.0282,17.5245-10.1906,26.3163-15.2205c23.3912-14.2651,47.6172-27.4683,73.4379-36.8141
		c17.2297-6.1304,35.3114-10.5529,53.6981-10.575c37.0393-0.3402,74.0464-4.8969,110.0392-13.6528
		c22.9763-5.6398,45.6005-12.9341,67.1406-22.7722c16.6455-7.5266,32.6307-16.7038,46.7813-28.3301
		c23.0602-18.6336,43.3558-40.8567,59.2231-65.9252c5.9319,33.1807,1.9402,68.7834-14.2511,98.6298
		c-10.598,19.4956-26.6799,35.8444-45.6315,47.3008c-18.5216,11.4994-39.5488,18.397-60.9011,22.3142
		c-36.3677,6.6333-73.4987,6.3448-110.3218,5.8167c-35.104-0.406-70.3174-1.7509-105.3188,1.734
		c-22.4811,2.3392-45.1588,6.751-65.5212,16.9375c-8.7544,4.2562-16.5322,10.1534-24.5191,15.6332
		c-31.445,22.6663-59.9298,49.5737-83.5339,80.3597c-5.1298,6.1659-9.1899,13.2573-15.0688,18.746
		c1.3242-6.8229,4.0781-13.3096,5.9814-19.9883c6.8646-21.5859,13.7492-43.1619,20.6219-64.7539
		c5.0317-14.3748,10.6082-28.5677,16.0667-42.7855c15.4921-39.8616,31.7679-79.4196,49.2781-118.4348
		c15.806-35.0452,32.4238-69.7827,51.7056-103.0693c10.7523-18.1425,22.0023-36.2175,36.4143-51.73
		c8.6173-8.9174,18.519-16.7696,29.696-22.2568c8.3962-3.9668,18.1647-6.5479,27.3706-3.9507
		c7.887,2.1418,14.1525,8.4662,17.1215,15.9833c4.3973,10.8634,3.6143,23.1802,0.2024,34.1943
		c-3.6042,11.6288-10.3164,22.0977-18.6189,30.9192c-29.1824,32.2226-59.2312,63.6432-88.1493,96.1056
		c-16.1768,18.1722-32.1948,36.5256-46.9221,55.9019c-6.9261,9.3213-13.8451,18.7866-18.6842,29.4008
		c-4.017,8.6138-7.9343,17.2783-11.4747,26.0995c-1.7779,4.7957-4.1356,9.547-4.3422,14.7357
		c42.2911-56.6326,86.9647-111.6063,135.7336-162.8051c14.7578-15.7681,30.876-30.1666,45.9255-45.6406
		c17.1493-17.9333,33.3827-37.0551,45.5725-58.7715c6.8126-12.5201,12.9397-26.2372,12.6904-40.7753
		c-0.0361-9.0505-4.8682-18.3989-13.5012-21.954C1184.6161,777.7062,1163.6289,776.3799,1143.5771,778.8263z"/>
	<path stroke="#000000" stroke-width="0.0938" d="M859.7442,1179.3529c4.2873-4.6978,10.9346-7.6829,17.3242-6.1877
		c8.1074,1.8173,13.8277,8.8679,17.5443,15.8823c2.1069,4.6851,4.8222,9.8903,3.233,15.1432
		c-1.4103,4.8722-6.5073,7.2463-11.0143,8.5005c-7.4216,1.9036-15.2994,1.844-22.7852,0.363
		c-5.0001-1.1294-10.5313-3.2466-12.9047-8.1575c-1.9698-4.2639-0.7077-9.1012,0.9318-13.2596
		C853.7116,1187.0564,856.429,1182.9095,859.7442,1179.3529z"/>
	<path stroke="#000000" stroke-width="0.0938" d="M497.181,1484.5349c14.4913-19.0901,33.3097-34.3776,52.8389-48.0638
		c32.4337-22.4895,67.4915-40.7382,101.7085-60.293c11.5166-5.9867,23.5558-10.9298,35.7534-15.3557
		c8.1273-2.9847,16.5286-5.1274,24.7167-7.9457c11.4248-3.7554,22.6909-7.9778,33.9214-12.2485
		c-45.9922,29.0278-91.6758,59.0958-132.4505,95.2845c-15.6395,14.0199-30.6412,28.9363-43.2268,45.8097
		c-6.9365,9.3912-13.1318,19.4658-17.1776,30.4634c-2.7022,7.0951-3.7737,14.6638-4.8945,22.1321
		c-2.6002,18.994-3.0842,38.5132,0.9008,57.3657c2.0391,9.1866,5.1646,18.329,10.7062,26.0463
		c4.1779,5.7037,10.4532,10.6282,17.7939,10.8361c7.2428,0.1931,13.8475-3.8423,18.9536-8.6604
		c7.1846-6.8513,12.4673-15.4182,16.9594-24.1968c19.8688-38.5325,40.2277-76.8057,61.3995-114.635
		c15.268-26.8387,30.2857-53.9153,48.1962-79.1134c12.0218-15.4995,25.7854-29.5507,39.5046-43.5441
		c6.5601-6.5017,13.0031-13.1283,19.9026-19.2717c-24.4469,33.4481-46.2521,68.9229-64.061,106.356
		c-8.2861,17.5259-15.5956,35.5487-21.187,54.1296c-5.0248,16.235-7.3145,33.1592-12.3951,49.3857
		c-11.6603,39.3425-28.9413,76.7833-48.2749,112.8937c-20.446,37.8524-43.3666,74.3755-68.5259,109.2826
		c-9.4398,12.6836-17.2725,26.6166-22.6318,41.5071c-5.1373,14.316-8.4092,29.5914-7.3751,44.855
		c0.6376,6.5668,1.7885,13.811,6.809,18.5687c3.3143,3.0714,8.4216,1.7715,11.5585-0.8824
		c6.6667-5.735,12.5195-12.3358,18.4394-18.8121c28.1475-31.8059,52.8976-66.5601,74.564-103.0638
		c30.9628-52.3765,55.316-109.0698,68.3452-168.6353c3.1976-15.2078,5.6881-30.5646,8.9976-45.7556
		c12.0695-56.7921,28.5879-112.8308,52.0681-165.9943c6.5824-14.4639,13.291-28.9589,21.6768-42.4799
		c-13.0605,38.5247-25.126,77.4705-33.8812,117.2274c-3.7914,17.7357-7.0961,35.6589-8.1663,53.7958
		c-0.8983,14.1799,0.5559,28.5985,5.0185,42.1245c1.8395,4.8951,4.3463,10.4409,9.5359,12.4996
		c5.4977,1.7689,10.8177-2.1876,14.2974-6.077c3.5002-5.1234,7.7236-10.1097,8.8761-16.4078
		c2.7936-13.2305-2.412-26.3317-1.8722-39.6001c0.5145-27.5371,8.3673-54.8024,21.3726-78.999
		c-2.9231,16.2856-5.4312,32.7125-5.9583,49.2792c-0.8564,20.7144,0.4487,41.5101,3.8364,61.9607
		c1.2224,8.1487,3.4984,16.0911,4.7568,24.2382c5.6451,32.7086,4.6185,66.7543-4.5776,98.7301
		c-6.278,22.0602-16.2587,43.0642-29.3461,61.9001c-9.7588,13.6654-20.6189,26.951-34.3291,36.8344
		c5.8727-35.4634,11.0405-71.0897,13.676-106.946c0.7082-11.6272,1.2908-23.3234,0.3029-34.9407
		c-0.5571-4.6741-0.992-9.6373-3.6475-13.6681c-1.5848-2.4473-4.8861-2.2706-6.9303-0.561
		c-5.4571,4.1075-8.968,10.1589-12.5403,15.8578c-17.7626,30.5973-29.46,64.1355-44.1548,96.2085
		c-17.6871,39.146-37.2607,77.5226-60.218,113.8613c-12.6617,20.0011-26.347,39.3909-41.677,57.447
		c-14.1876,16.5902-29.7449,32.3026-47.9911,44.4441c-10.2111,6.6259-21.4448,12.2047-33.5901,14.043
		c-10.3334,1.5811-21.5103-0.604-29.705-7.3181c-5.2645-5.3232-9.7604-11.8612-10.6046-19.4813
		c-2.2729-16.8726,2.7779-33.6613,8.3593-49.4122c12.2035-32.1466,29.673-62.0299,48.7589-90.5337
		c-14.11-20.7083-25.8309-42.9956-35.7909-65.9626c-13.8434-32.3945-23.8047-66.7878-26.1717-102.0435
		c-1.425-21.0925,0.0919-42.4443,5.295-62.9641C478.416,1517.7131,485.5976,1499.6854,497.181,1484.5349z"/>
	<path stroke="#000000" stroke-width="0.0938" d="M853.0624,1239.0272c3.1865-7.4156,8.6316-14.6354,16.6669-17.0547
		c6.9297-2.1991,14.6171,0.4633,19.6417,5.4789c8.0986,7.8795,11.4921,19.2856,12.3143,30.2917
		c1.3145,17.7798-2.9619,35.364-7.8039,52.3342c-3.42,11.306-6.8463,22.6542-11.0703,33.6967
		c5.4258,7.3925,8.6465,16.0914,11.0223,24.8925c4.8031,17.6884,6.942,35.9779,8.185,54.2332
		c2.4709,38.9464,0.5248,78.0237-2.7018,116.8658c-3.2639,39.0439-8.0148,77.9434-12.7697,116.8207
		c-2.0466,15.6379-3.9053,31.3112-7.0067,46.7837c-0.5237,2.4883-1.1252,4.9722-1.9523,7.3864
		c-3.3659-10.208-4.6641-20.9495-6.4174-31.5161c-5.3315-36.6085-10.1305-73.2875-14.377-110.0262
		c-4.8317-43.3693-8.7337-86.9779-7.855-130.6628c0.6066-23.5763,2.2324-47.3214,8.1724-70.226
		c2.5891-9.2,5.4893-18.8538,12.2774-25.922c-7.5008-20.5815-15.1805-41.3042-18.9216-62.9733
		C848.3494,1266.0486,847.8641,1251.7969,853.0624,1239.0272z"/>
	<path stroke="#000000" stroke-width="0.0938" d="M1818.8447,554.5297c0.7393-6.1169,0.6398-12.4098,2.5017-18.3368
		c4.9716,4.0352,5.2925,10.7116,5.943,16.5724c1.4753,16.5169,1.4801,33.1133,1.6692,49.6731
		c0.4921,31.9783-2.4742,63.9881-8.5642,95.3719c-6.9985,35.4374-18.1129,70.2858-35.3204,102.139
		c-17.8842,33.3604-43.056,63.2533-74.8798,84.061c-17.6089,11.3719-36.5804,20.8661-56.6818,26.9302
		c-16.8177,5.0053-34.6689,7.3671-52.1193,4.8199c-23.5137-3.2642-45.8502-16.2763-59.1666-36.079
		c16.5306,6.7709,34.4093,10.4194,52.2892,10.1997c15.1836-0.1667,30.2579-3.8463,43.8284-10.6546
		c10.4613-5.2442,20.8031-11.6934,27.8827-21.2275c3.6947-4.894,5.8542-11.8989,2.6263-17.5958
		c-4.2175-7.154-12.3887-10.4038-19.8911-12.9169c-17.9502-5.411-36.834-6.3644-55.4429-7.1479
		c-24.8163-0.6353-50.6058,0.6425-73.4497,11.3074c-19.871,9.3879-34.8713,26.3923-47.0797,44.2305
		c-6.7633,10.0464-12.6522,20.6531-17.72,31.6476c-0.8785,2.0419-2.1426,4.033-2.0471,6.3497
		c-0.8768-5.2584,0.1569-10.5731,0.8677-15.7862c2.1372-12.9072,5.9821-25.4725,10.6245-37.6819
		c2.7603-6.8146,5.1366-13.9301,9.5767-19.8849c7.4963-10.2153,18.3291-17.3628,29.4736-23.0623
		c15.967-8.0074,33.0775-13.3907,50.2418-18.1794c23.3746-6.5311,47.1801-11.453,70.4479-18.4148
		c35.0961-10.6423,72.0001-17.0377,104.3331-35.1877c11.9551-6.6217,23.1163-14.671,33.2891-23.8054
		c7.5227-6.865,14.8499-14.0954,20.4924-22.6298c9.3959-14.106,15.5968-30.0784,20.3713-46.2652
		C1812.2512,620.9528,1816.0106,587.6605,1818.8447,554.5297z"/>
	<path stroke="#000000" stroke-width="0.0938" d="M980.8727,1213.3976c40.1618,7.8219,80.8895,12.5398,121.6987,15.3323
		c78.9113,5.1855,158.7302,2.5134,236.4196-12.984c23.5061-4.738,46.7749-10.7057,69.5504-18.199
		c63.615-21.4352,126.3594-46.4543,184.7446-79.8287c21.0392-12.2656,41.6614-25.5164,60.1226-41.4723
		c3.7543-3.1476,7.0562-6.8063,10.9574-9.7888c-20.5393,37.1877-42.3501,73.7487-67.0035,108.3813
		c-13.7688,19.3271-28.3481,38.1466-44.7102,55.3616c-8.3199,8.4613-16.6102,17.249-26.9608,23.2319
		c-16.8898,9.8209-35.983,15.0282-55.0023,18.8379c-38.0903,7.2471-77.0171,8.634-115.6934,8.2568
		c-35.9574-0.484-71.8715-2.8779-107.6073-6.6965c-37.4719-4.1149-74.8567-9.5251-111.6387-17.8551
		c-38.8705-8.5649-77.6392-17.665-115.9661-28.4221c-10.5746-3.0527-21.1794-6.0958-31.4922-9.9888
		C985.663,1216.4976,982.8235,1215.5494,980.8727,1213.3976z"/>
	<path stroke="#000000" stroke-width="0.0938" d="M966.0067,1270.2419c-0.0179-3.1202,3.4069-4.644,5.5804-6.2627
		c10.7272-7.2064,24.208-7.8433,36.7056-7.1688c21.0508,1.3788,41.6349,6.5343,61.8339,12.3972
		c37.6539,11.1923,74.1754,25.8326,110.2429,41.3059c11.5857,4.892,23.8876,9.205,36.6366,8.8231
		c10.9847-0.3464,21.1655-4.9607,31.1038-9.1965c10.3865-4.5548,21.0526-8.4955,32.0525-11.2778
		c9.4569-2.3632,19.2285-4.5363,29.0344-3.365c9.2014,0.9591,18.0873,5.832,23.0916,13.7476
		c6.3257,9.9729,8.0106,22.2811,7.1207,33.8811c-8.7986-16.0785-24.7805-29.1738-43.5061-30.7041
		c-16.9952-2.1501-34.425,9.9349-38.1815,26.6749c-2.4839,9.8806,1.3097,20.7178,9.0013,27.3063
		c10.3589,8.9694,24.1019,13.3986,37.6659,14.0184c16.9496,0.6918,33.6796-4.0623,48.9539-11.1224
		c13.218-6.1748,25.5325-14.1439,37.0302-23.101c9.6171-7.7662,19.9303-14.6915,30.7609-20.6812
		c8.4221-4.5205,17.2201-8.7345,26.6888-10.5098c4.057-0.6853,8.7743-0.8639,12.1527,1.924
		c2.9491,2.981,2.6428,7.5469,1.8101,11.3331c-2.0951,8.9094-6.7777,16.9086-11.4348,24.6898
		c-22.8881,36.7352-55.8223,66.3713-92.0612,89.5839c-8.9163,5.3831-17.8364,11.3163-28.1349,13.6176
		c-8.4546,2.0203-17.5013,0.9844-25.4006-2.5536c-10.4714-4.646-19.157-12.3777-27.2975-20.2634
		c-15.4003-15.3031-29.361-31.9562-44.578-47.4321c-28.2552-29.3663-60.6547-55.0359-97.0081-73.6553
		c-19.4652-10.0857-39.8879-18.2703-60.8187-24.7362c-24.7523-8.2551-51.0078-9.8287-76.8466-11.5114
		c-8.9456-0.6631-17.9681-0.9089-26.7733-2.7451C969.4677,1272.6704,966.9744,1272.2749,966.0067,1270.2419z"/>
	<path stroke="#000000" stroke-width="0.0938" d="M975.8338,1443.3657c-9.0233-38.3567-20.5447-76.123-33.849-113.2059
		c8.7576,13.1122,15.2053,27.608,21.8849,41.8457c27.1431,60.5032,45.3461,124.6914,58.0152,189.6865
		c10.8159,62.05,34.3131,121.4055,65.2836,176.0836c22.7794,40.078,49.3557,78.0587,79.6952,112.786
		c6.639,7.5031,13.4108,14.9331,20.7988,21.7334c2.8816,2.6204,6.9922,5.1035,10.9834,3.5217
		c4.3658-1.9332,6.2839-6.7577,7.4944-11.0594c2.5908-10.3079,1.7413-21.1321-0.0436-31.489
		c-3.3339-17.854-10.4297-34.8926-19.9167-50.3379c-5.3979-8.8185-11.9535-16.8309-17.7834-25.3424
		c-28.6687-40.7615-54.6636-83.4742-76.6741-128.1989c-17.2463-35.4006-32.2122-72.2754-40.161-110.9785
		c-4.5536-20.4467-11.7241-40.2279-20.1007-59.4034c-18.9822-42.7972-43.6374-82.9065-71.34-120.5771
		c20.0234,18.85,39.6107,38.2709,57.272,59.3761c13.4763,17.5457,24.5709,36.7646,35.9374,55.6953
		c26.1031,44.6597,50.7181,90.1827,74.7712,135.9718c5.2645,10.4214,11.0668,20.8806,19.6477,28.9755
		c4.8859,4.5586,11.0631,8.3744,17.9403,8.527c5.5487,0.1892,10.824-2.5156,14.7468-6.3099
		c5.8807-5.7386,9.4647-13.3735,12.0212-21.0696c6.5336-20.8563,6.2673-43.1908,3.4829-64.6591
		c-1.3545-9.5558-2.8363-19.2166-6.7737-28.0945c-7.8699-18.1702-20.5963-33.7084-34.0275-48.0297
		c-17.5823-18.4407-37.1102-34.921-57.2831-50.4399c-32.2694-24.8207-66.4474-47.0248-101.1381-68.2903
		c10.1358,3.4517,20.1123,7.3943,30.3132,10.6984c10.6044,3.665,21.5396,6.3644,32.0579,10.3168
		c14.2712,5.2449,28.3314,11.2305,41.4448,18.9973c12.1125,6.7657,24.288,13.3978,36.3721,20.2095
		c31.1085,17.5962,62.3389,35.7612,88.9592,59.8701c15.0112,13.7504,28.2913,29.9365,36.0211,48.9437
		c8.5697,19.891,13.182,41.3761,14.2675,62.9683c1.6472,32.9525-4.4116,65.8926-14.5927,97.1414
		c-11.2515,33.8553-26.8871,66.2876-46.6135,96.011c17.2604,25.2067,32.9038,51.6578,45.0739,79.7185
		c6.5476,15.6406,12.3544,31.978,13.3618,49.0397c0.572,10.1962-1.5022,21.2539-8.9294,28.7695l-6.3212,4.6715
		c-11.3639,6.7319-25.4858,5.8281-37.5115,1.485c-18.2998-6.6074-33.8834-18.8779-47.9629-32.0237
		c-30.8678-29.5868-55.2128-65.1877-77.0331-101.7468c-25.1246-42.4606-46.2915-87.1372-65.3748-132.5951
		c-8.2673-19.095-16.6965-38.207-27.3442-56.1146c-3.5785-5.5995-7.1122-11.5927-12.6633-15.4359
		c-1.9593-1.5239-5.176-1.4346-6.5202,0.8521c-2.2064,3.1724-2.7305,7.1407-3.293,10.8889
		c-1.2885,11.3972-0.6939,22.9197-0.0346,34.3447c2.7025,37.022,8.241,73.776,14.5308,110.3353
		c-9.4496-6.595-17.3297-15.1208-24.734-23.8613c-15.4606-18.6658-27.5936-40.064-35.7307-62.8861
		c-11.8553-32.9685-14.7939-68.8462-9.9412-103.4688c1.6425-13.3748,5.4445-26.3682,6.8971-39.7643
		c4.4716-34.1792,3.2571-69.2047-4.2914-102.8569c7.5024,12.4233,12.4649,26.2388,16.3946,40.1709
		c4.8828,18.5869,7.6282,38.2189,4.2411,57.3094c-1.0417,7.3228-1.7073,14.9022,0.0914,22.1652
		c1.3664,5.9038,5.4351,10.6187,8.841,15.4629c3.4923,3.9347,8.9594,7.7654,14.4412,5.8281
		c5.3871-2.4021,7.7571-8.3314,9.6119-13.5444c3.9554-12.9204,5.3339-26.5851,4.4671-40.0575
		C984.028,1482.1486,980.1896,1462.653,975.8338,1443.3657z"/>
	<path stroke="#000000" stroke-width="0.0938" d="M1171.0145,1209.5709c42.5078-10.8599,84.3514-24.2506,125.502-39.4543
		c39.444-14.6016,78.2272-31.04,115.8926-49.7983c42.26-21.0719,83.1471-45.1458,120.9248-73.5614
		c78.8146-58.3947,157.3341-117.2053,235.6196-176.3157c-14.342,34.1995-30.0203,67.8696-47.7051,100.4734
		c-6.2808,11.406-12.8346,22.6779-20.0533,33.5212c-4.6847,7.1551-10.9727,13.0828-17.3744,18.6716
		c-18.3665,15.5627-38.8136,28.4105-59.4272,40.7473c-42.8051,25.1802-87.3779,47.2277-132.6154,67.6526
		c-40.2035,17.8986-80.9303,34.8531-122.9446,48.0466c-58.0712,17.5122-118.4885,26.5494-178.9803,29.6981
		C1183.5701,1209.3816,1177.2731,1210.0812,1171.0145,1209.5709z"/>
</g>
</svg>
