<svg xmlns="http://www.w3.org/2000/svg" viewBox="-90.07 471.195 1919.128 1463.094"><g fill="#fff" stroke="#000" stroke-width=".094"><path d="M-43.79 502.174l.306-.226c3.558 1.113 7.28.278 10.924.345 39.51-.612 79.022.49 118.506 1.776 16.75.74 33.582.735 50.216 3.003 20.078 2.62 39.844 7.795 58.485 15.705 33.162 14.201 63.327 36.847 83.609 66.933-8.524.53-17.188.18-25.45-2.082-5.419-1.342-9.919-5.564-15.732-5.421-7.474-.371-13.945 5.207-16.32 12.023-3.903 10.718-2.658 22.481-.778 33.489 3.403 18.3 9.486 36.174 18.919 52.269 14.002 24.381 32.342 45.968 51.71 66.235 31.855 32.96 67.126 62.414 103.42 90.34 16.33 12.34 32.577 24.868 49.827 35.944 4.696 2.87 9.392 5.978 14.694 7.618 1.23.57 2.348-.256 3.438-.75-1.475-5.227-4.839-9.593-8.034-13.883-11.058-14.273-23.355-27.53-35.603-40.773-33.263-35.688-68.555-69.478-100.382-106.488-16.227-18.945-32.305-38.26-44.764-59.965-4.626-8.531-9.187-17.632-9.592-27.517-.383-6.593 3.391-13.684 10.038-15.525 8.498-2.264 17.285.506 25.322 3.27 19.28 7.363 36.887 18.4 53.86 29.992-7.19-1.687-15.05-2.63-22.106.122-4.58 1.693-7.716 6.15-8.323 10.913-1 7.665 1.456 15.263 4.184 22.336 6.062 14.781 14.728 28.309 23.693 41.467 15.766 22.78 33.45 44.167 51.884 64.838 33.695 37.519 69.994 72.654 107.616 106.215 13.624 11.89 27.03 24.091 41.53 34.912-1.793-4.009-4.107-7.745-6.409-11.465-12.181-19.647-24.837-38.993-37.304-58.453-13.905-21.743-28.13-43.448-38.731-67.048-5.325-12.354-10.15-25.562-9.307-39.228.456-8.855 4.74-17.43 11.821-22.838 9.64-7.584 22.355-10.974 34.497-9.266 16.713 2.172 31.891 10.428 45.657 19.75 16.468 11.382 31.397 24.92 44.9 39.673-19.247-2.538-39.293-.991-57.489 6.002-5.477 1.91-10.314 5.745-12.91 10.983-3.588 7.19-3.356 15.599-1.798 23.276 3.111 14.524 10.342 27.758 18.317 40.13 14.27 21.598 31.838 40.794 50.376 58.778 11.766 11.075 23.427 22.278 34.635 33.927 49.347 51.008 94.263 106.099 137.235 162.514-.912-7.645-4.621-14.565-7.421-21.635-5.143-11.183-9.632-22.775-16.575-33.012-8.244-12.534-17.77-24.146-27.329-35.684-38.282-45.358-79.952-87.677-120.02-131.43-11.016-11.691-19.183-26.595-20.865-42.736-1.056-9.975.545-20.732 6.732-28.899 4.983-6.617 13.263-10.286 21.495-9.966 12.74.396 24.27 6.995 34.29 14.362 18.38 13.463 31.255 32.72 43.432 51.637 21.941 35.275 40.182 72.677 57.618 110.337 19.151 41.765 36.844 84.197 53.696 126.939 6.767 17.518 13.878 34.93 19.337 52.918 7.54 23.562 15.446 47.014 22.776 70.645-3.409-2.493-5.703-6.119-8.258-9.391-29.05-39.51-65.604-73.325-106.832-99.82-13.64-8.396-29.01-13.613-44.605-16.997-21.062-4.49-42.629-5.911-64.112-6.411-33.888-.645-67.761 1.085-101.647 1.134-34.456-.052-69.43-1.375-102.744-10.986-32.343-9.323-62.644-28.922-80.591-57.885-19.24-30.795-24.228-68.975-18.275-104.398 15.239 23.666 34.348 44.796 56.034 62.716 12.83 10.798 27.093 19.817 42.18 27.108 31.704 15.34 65.845 25.162 100.413 31.522a488.945 488.945 0 0088.185 7.858c25.924.637 50.894 9.254 74.334 19.771 22.941 10.365 44.55 23.368 66.008 36.47 3.682 1.954 7.114 4.914 11.45 5.229-5.647-9.542-13.944-17.151-21.119-25.514-18.599-21.146-41.593-38.783-67.961-49.04-28.921-11.54-60.07-15.056-90.52-20.356-30.95-5.08-61.688-12.418-90.769-24.326-32.346-13.112-63.348-31.036-87.718-56.323-17.268-17.964-31.194-39.99-36.172-64.661 17.398 18.663 36.3 35.843 55.316 52.826 13.148 11.92 28.97 20.557 45.481 26.882 14.805 5.547 30.359 9.633 46.23 10.227 6.23.12 12.712-.144 18.479-2.74 3.168-1.383 6.033-4.135 6.429-7.722.49-4.603-1.858-8.874-4.24-12.635-6.769-10.254-15.511-18.988-24.314-27.466-15.307-14.539-31.627-27.956-48.088-41.145-36.97-29.38-75.205-57.09-113.173-85.148-33.354-24.74-66.968-49.226-98.647-76.124-12.253-10.691-24.707-21.47-34.418-34.61-4.09-5.011-4.766-11.934-9.333-16.617-7.852-8.758-18.245-14.693-28.622-19.969-17.661-8.62-36.554-14.566-55.811-18.414-23.145-4.432-47.1-5.953-70.435-2.062-6.873 1.435-14.456 2.986-19.374 8.411-3.302 3.66-2.41 9.192-.019 13.083 5.54 9.06 14.312 15.461 22.799 21.561 21.18 14.476 44.31 25.77 67.598 36.4 19.89 8.927 40.1 17.144 60.494 24.853 14.932 5.701 30.184 10.607 44.687 17.36 20.145 9.172 39.392 20.713 55.821 35.641 16.275 14.72 29.525 33.153 36.585 54.048 5.098 15.294 7.285 31.832 4.634 47.83-3.435-28.423-15.994-56.656-38.442-75.07-11.782-9.111-26.124-13.98-40.071-18.72-22.653-7.331-45.754-13.15-68.622-19.714-44.504-12.671-88.98-27.34-129-51.021-11.405-6.617-22.186-14.441-31.379-23.936-19.534-19.82-32.159-45.569-38.994-72.35-7.73-30.483-8.961-62.4-5.32-93.566 2.564 8.35 7.026 16.02 12.406 22.863 13.26 16.798 32.294 28.185 52.362 35.014 25.665 8.75 53.076 10.912 80.024 10.158 18.212-.713 36.729-2.746 53.73-9.69 7.298-3.131 14.74-7.362 18.916-14.365 2.823-4.71 2.65-10.85-.25-15.482-4.49-7.388-12.21-11.979-19.799-15.635-15.8-7.397-33.135-10.428-50.22-13.17-47.716-8.32-95.183-18.254-141.971-30.853a40.493 40.493 0 00-3.028-.547c-.362-.354-1.093-1.057-1.455-1.412z"/><path d="M-87.449 549.435c.694-3.1 1.53-6.813 4.79-8.19 1.408 4.866 1.616 9.96 2.187 14.971 3.323 36.6 7.48 73.505 18.9 108.61 6.296 18.75 14.695 37.4 28.626 51.774 15.274 15.806 33.273 29.04 53.181 38.413 26.6 12.858 55.7 18.92 84.022 26.688 33.771 10.431 68.719 16.548 102.393 27.336 14.942 4.924 29.797 10.707 42.942 19.508 9.281 6.284 17.655 14.57 21.945 25.102 8.444 19.822 15.568 40.719 16.415 62.425-9.276-20.09-20.465-39.537-35.415-55.981-8.284-9.073-17.66-17.351-28.608-23.063-13.564-7.098-28.732-10.561-43.884-12.034-16.675-1.616-33.47-1.005-50.149.167-14.392 1.187-28.958 2.812-42.568 7.884-6.222 2.434-12.756 5.808-16.065 11.897-2.403 4.437-1.53 9.91.858 14.15 3.606 6.512 9.397 11.47 15.36 15.769 16.183 11.13 35.406 18.163 55.122 18.812 18.962.808 37.9-3.214 55.471-10.194-11.367 17.092-29.59 29.18-49.377 34.29-21.22 5.51-43.727 2.969-64.434-3.464-24.27-7.84-47.19-19.924-67.481-35.367-30.77-23.666-54.09-55.946-70.388-90.954-18.66-40.175-29.074-83.796-33.822-127.724-3.203-27.874-2.76-55.98-2.199-83.974.374-8.967.522-18.005 2.178-26.851zM449.618 486.422c4.89-6.86 12.467-12.322 21.066-12.97 10.113-.734 19.633 4.105 27.662 9.786 15.085 10.923 27.14 25.403 38.393 40.09 26.704 35.748 48.162 75.013 68.882 114.424 31.283 60.167 60.71 121.27 89.808 182.517 54.566 115.192 107.31 231.234 159.473 347.517-5.27-8.527-8.873-17.963-13.328-26.918-39.945-86.407-79.702-172.914-121.377-258.514-26.898-55.276-54.38-110.281-83.616-164.363-19.104-34.986-38.612-69.847-61.134-102.779-8.43-11.962-17.089-23.965-27.873-33.963-5.199-4.95-11.72-8.287-18.463-10.615-3.23-.921-7.343-2.096-10.055.629-2.551 3.9-.71 8.831.52 12.884 5.171 13.61 13.091 26.11 22.24 37.38 14.887 15.147 27.723 32.147 40.516 49.053-3.908-1.687-7.053-4.648-10.405-7.181-19.101-15.516-37.028-32.47-53.787-50.488-13.029-14.332-25.838-29.275-34.72-46.61-3.106-6.508-6.284-13.87-4.546-21.21 1.601-6.331 8.3-9.33 14.248-10.132 10.64-1.385 21.41.417 31.746 2.962-6.12-11.816-13.53-23.052-22.613-32.803-5.899-6.097-12.724-11.934-21.1-14.149-5.549-1.383-12.058-.937-16.482 3.004-4.193 3.832-5.21 9.843-5.136 15.26.146 9.267 2.984 18.187 5.948 26.877-6.888-8.8-12.845-18.51-16.448-29.14-2.132-6.569-3.265-14.361.58-20.548zM-28.541 875.203c80.34 60.171 161.078 119.801 242.036 179.143 64.3 46.61 136.403 81.348 210.273 109.93 48.357 18.49 97.709 34.491 147.955 47.009-27.415.104-54.794-2.368-82.02-5.474-39.821-4.904-79.403-12.395-117.846-24-37.14-11.522-73.274-26.026-108.995-41.332-52.734-23.051-104.737-48.074-154.208-77.578-16.233-9.8-32.235-20.096-47.05-31.965-8.837-7.147-17.444-14.924-23.443-24.69-18.26-28.074-33.299-58.08-47.634-88.297-6.586-14.145-13.102-28.33-19.068-42.746zM77.214 1070.431c23.016 22.446 50.544 39.554 78.446 55.218 40.378 22.198 82.792 40.454 125.92 56.58 31.556 11.656 63.383 22.89 96.202 30.517 61.737 14.571 125.339 20.19 188.7 20.032 41.694-.15 83.377-2.803 124.773-7.73 23.297-2.868 46.545-6.222 69.54-10.98-.76 2.203-3.58 2.51-5.366 3.543-17.588 6.756-35.827 11.605-53.966 16.605-22.997 6.202-46.114 11.92-69.293 17.337-26.39 6.186-52.84 12.24-79.632 16.436-61.308 9.783-123.375 15.376-185.49 15.285-36.317-.33-72.91-2.347-108.386-10.61-18.143-4.51-36.523-10.536-51.398-22.235-16.651-14.118-30.956-30.766-44.596-47.743-19.055-24.303-36.43-49.884-52.748-76.086-11.376-18.439-22.519-37.05-32.706-56.169zM1212.084 512.536c9.963-12.262 20.668-24.227 33.857-33.116 7.467-4.871 16.221-8.892 25.358-8.071 7.654.598 14.401 5.186 19.312 10.87 2.637 2.963 3.97 6.939 4.015 10.885.185 7.436-2.625 14.536-5.762 21.144-3.424 6.758-7.366 13.302-12.096 19.235 2.182-7.58 4.837-15.126 5.315-23.077.506-6.416.035-13.766-4.917-18.499-4.983-4.487-12.51-4.544-18.557-2.463-8.881 3.193-15.861 9.968-21.974 16.923-7.664 9.046-14.181 19.072-19.496 29.665 9.509-2.377 19.347-4.09 29.186-3.378 5.313.476 11.117 1.819 14.673 6.142 2.942 3.695 3.092 8.794 2.147 13.236-1.848 8.403-6.21 15.978-10.693 23.22-11.25 17.454-25.217 32.961-39.633 47.83-11.625 11.812-23.688 23.201-36.324 33.932-5.175 4.086-9.986 8.984-15.96 11.82 12.7-17.207 25.73-34.285 40.592-49.695 7.133-8.84 13.173-18.551 18.138-28.76 2.305-4.974 4.57-10.154 5.057-15.687.228-2.569-.46-5.94-3.344-6.644-4.892-1.135-9.675 1.344-14.049 3.233-8.764 3.754-15.427 10.841-21.57 17.906-12.538 14.786-23.101 31.098-33.403 47.477-21.487 34.83-40.932 70.873-59.88 107.134-66.567 128.575-126.288 260.522-186.284 392.25-4.786 10.114-9.13 20.473-14.447 30.322 14.653-34.417 30.185-68.488 45.33-102.71 34.33-76.812 69.09-153.444 104.572-229.74 33.816-72.29 67.817-144.532 104.85-215.246 19.59-36.772 40.103-73.356 65.987-106.138zM280.745 1329.77c-.63-3.663-.27-8.156 3.064-10.459 5.796-3.127 12.646-1.076 18.562.62 16.6 5.637 31.596 15.159 45.641 25.483 11.586 9.132 23.75 17.65 37.012 24.188 15.745 7.861 33.098 13.39 50.842 13.221 14.341-.128 28.979-4.517 40.011-13.901 7.159-5.962 11.216-15.563 9.878-24.845-2.277-17.367-19.46-30.792-36.794-29.547-19.563.904-36.667 14.44-45.477 31.408-.875-12.087.71-25.034 7.705-35.239 5.475-8.087 15.045-12.536 24.627-13.064 12.652-.783 25.04 2.857 37.068 6.328 14.339 4.175 27.48 11.61 41.857 15.634 14.672 4.004 30.015-.086 43.657-5.754 44.643-19.227 89.747-38.048 137.016-49.853 17.169-4.009 34.776-7.508 52.497-6.479 9.395.48 18.81 3.309 26.231 9.264 1.03.955 2.312 2.084 2.485 3.597-.48 2.145-2.926 2.586-4.689 3.23-7.168 1.74-14.575 2.066-21.903 2.682-22.682 1.63-45.548 2.86-67.755 8.094-45.856 12.252-89.513 33.25-126.955 62.525-23.51 18.144-44.294 39.486-64.119 61.522-10.93 11.945-21.494 24.303-33.708 34.983-9.796 8.583-21.775 16.266-35.257 16.195-12.73.106-24.034-6.56-34.57-12.924-38.715-24.037-73.876-55.362-97.489-94.7-3.995-6.97-7.97-14.216-9.437-22.21z"/><path d="M1143.577 778.826c14.245-15.687 30.057-30.046 47.66-41.898 12.624-8.273 26.427-15.49 41.516-17.787 13.896-2.262 28.838 2.09 38.9 12.037 6.868 6.837 9.362 16.943 8.588 26.393-1.021 13.712-6.29 26.67-12.054 39.012-8.612 18.028-19.17 35.02-29.786 51.917-13.695 21.598-27.533 43.103-40.971 64.846-2.653 4.622-5.941 8.954-7.735 13.998 16.62-12.693 32.05-26.894 47.624-40.853 35.982-32.796 70.691-67.064 102.894-103.595 17.298-19.734 33.877-40.156 48.718-61.817 8.611-12.594 16.738-25.625 22.839-39.646 3.008-7.421 5.844-15.311 5.256-23.444-.296-5.078-3.283-10.095-8.095-12.047-7.011-3.026-14.89-1.891-22.134-.455 16.396-11.532 33.582-22.23 52.267-29.673 7.708-2.812 15.972-5.511 24.279-4.264 6.1.85 11.001 6.07 11.853 12.118 1.15 7.916-1.741 15.698-4.844 22.84-7.918 16.93-19.174 32.001-30.57 46.715-27.785 35.007-58.841 67.234-89.914 99.287-17.927 18.782-35.821 37.626-52.68 57.383-5.73 6.884-11.592 13.74-16.26 21.406-1.048 2.117-2.997 4.577-1.524 6.957 4.613-.337 8.571-2.989 12.525-5.177 11.692-7.112 22.718-15.26 33.682-23.425 38.246-28.674 75.45-58.892 109.602-92.4 19.183-19 37.485-39.042 52.974-61.207 10.277-14.832 19.421-30.691 24.943-47.953 4.192-13.779 7.778-28.006 7.609-42.503-.214-7.44-1.425-15.423-6.42-21.256-3.671-4.412-9.784-6.323-15.346-5.235-4.233.716-7.608 3.62-11.66 4.8-8.55 2.75-17.666 3.083-26.57 2.662 10.947-17.24 25.94-31.63 42.164-43.867 33.922-25.355 75.748-38.92 117.815-41.408 39.058-1.882 78.143-3.274 117.242-3.806 14.694-.004 29.438-.53 44.104.47-42.63 12.143-85.987 21.567-129.518 29.863-18.582 3.797-37.66 5.66-55.652 11.97-9.46 3.334-18.894 7.546-26.266 14.498-3.991 3.87-7.403 9.164-6.783 14.948.676 7.073 6.358 12.424 12.083 16.014 10.95 6.692 23.68 9.682 36.232 11.709 17.438 2.58 35.151 2.808 52.729 1.792 21.612-1.361 43.3-5.278 63.283-13.841 24.047-10.199 46.16-28.617 54.854-53.918 4.196 32.649 2.556 66.252-6.115 98.063-7.775 28.178-22.403 54.991-44.527 74.438-10.165 9.228-22.055 16.224-33.968 22.902-34.908 19.294-72.801 32.377-110.928 43.68-19.088 5.65-38.31 10.853-57.411 16.452-15.197 4.591-30.474 9.241-44.818 16.148-7.409 3.536-14.252 8.257-20.02 14.099-18.81 18.714-29.524 44.648-32.033 70.85-3.103-18.87-.226-38.467 7.036-56.082 6.74-16.507 17.368-31.25 30.086-43.67 15.837-15.485 34.753-27.512 54.631-37.142 19.535-9.574 40.386-15.969 60.507-24.16 25.064-9.932 49.884-20.565 73.95-32.755 17.945-9.22 35.804-18.974 51.554-31.683 6.013-5.19 12.512-10.764 15.135-18.521 1.457-4.036-.172-8.714-3.635-11.178-6.247-4.634-14.174-5.938-21.678-7.057-22.285-2.88-44.975-1.244-66.937 3.21-19.94 4.18-39.513 10.538-57.632 19.924-8.053 4.297-15.998 9.025-22.631 15.345-3.147 3.01-6.112 6.419-7.633 10.552-3.01 8.95-9.72 15.938-16 22.717-17.788 18.231-37.763 34.124-57.675 49.934-59.36 46.442-121.248 89.58-179.894 136.936-18.905 15.44-37.675 31.163-54.556 48.836-6.293 6.914-12.765 13.972-16.752 22.526-1.886 3.943-2.323 9.24 1.158 12.487 4.65 4.273 11.325 4.96 17.36 5.287 14.479.342 28.787-2.945 42.502-7.336 14.833-4.932 29.15-11.62 41.998-20.568 7.766-5.291 14.455-11.938 21.453-18.167 15.592-14.37 31.206-28.794 45.478-44.514-3.465 19.558-13.299 37.445-25.443 52.948-24.434 30.84-58.822 52.2-94.708 67.342-21.956 9.326-44.902 16.186-68.207 21.161-34.954 7.79-71.074 10.434-105.181 21.826-23.099 7.595-44.45 20.278-62.214 36.875-8.813 7.98-16.54 17.023-24.46 25.86-3.572 4.083-7.185 8.145-10.408 12.516-.849 1.174-1.967 2.437-1.29 3.975 9.32-4.028 17.524-10.19 26.316-15.22 23.391-14.265 47.617-27.468 73.438-36.814 17.23-6.13 35.311-10.553 53.698-10.575 37.04-.34 74.046-4.897 110.04-13.653 22.975-5.64 45.6-12.934 67.14-22.772 16.645-7.527 32.63-16.704 46.781-28.33 23.06-18.634 43.356-40.857 59.223-65.926 5.932 33.181 1.94 68.784-14.251 98.63-10.598 19.496-26.68 35.845-45.632 47.301-18.521 11.5-39.548 18.397-60.9 22.314-36.368 6.634-73.5 6.345-110.322 5.817-35.104-.406-70.318-1.75-105.32 1.734-22.48 2.34-45.158 6.751-65.52 16.937-8.755 4.257-16.533 10.154-24.52 15.634-31.444 22.666-59.93 49.573-83.533 80.36-5.13 6.165-9.19 13.257-15.07 18.745 1.325-6.823 4.079-13.31 5.982-19.988 6.865-21.586 13.75-43.162 20.622-64.754 5.032-14.375 10.608-28.568 16.067-42.785 15.492-39.862 31.768-79.42 49.278-118.435 15.806-35.045 32.424-69.783 51.706-103.07 10.752-18.142 22.002-36.217 36.414-51.73 8.617-8.917 18.519-16.769 29.696-22.256 8.396-3.967 18.164-6.548 27.37-3.95 7.887 2.14 14.153 8.465 17.122 15.982 4.397 10.864 3.614 23.18.202 34.195-3.604 11.628-10.316 22.097-18.619 30.919-29.182 32.223-59.23 63.643-88.149 96.106-16.177 18.172-32.195 36.525-46.922 55.901-6.926 9.322-13.845 18.787-18.684 29.401-4.017 8.614-7.935 17.278-11.475 26.1-1.778 4.795-4.136 9.547-4.342 14.735 42.291-56.632 86.965-111.606 135.733-162.805 14.758-15.768 30.876-30.166 45.926-45.64 17.15-17.934 33.383-37.055 45.572-58.772 6.813-12.52 12.94-26.237 12.69-40.775-.035-9.05-4.867-18.399-13.5-21.954-18.765-7.943-39.752-9.27-59.804-6.823zM859.744 1179.353c4.287-4.698 10.935-7.683 17.324-6.188 8.108 1.818 13.828 8.868 17.545 15.883 2.107 4.685 4.822 9.89 3.233 15.143-1.41 4.872-6.508 7.246-11.015 8.5-7.421 1.904-15.299 1.844-22.785.363-5-1.13-10.531-3.246-12.905-8.157-1.97-4.264-.707-9.101.932-13.26 1.639-4.58 4.356-8.727 7.671-12.284zM497.181 1484.535c14.491-19.09 33.31-34.378 52.839-48.064 32.434-22.49 67.491-40.738 101.708-60.293 11.517-5.987 23.556-10.93 35.754-15.356 8.127-2.984 16.528-5.127 24.717-7.945 11.424-3.756 22.69-7.978 33.92-12.249-45.991 29.028-91.675 59.096-132.45 95.285-15.64 14.02-30.64 28.936-43.226 45.81-6.937 9.39-13.132 19.465-17.178 30.463-2.702 7.095-3.774 14.664-4.895 22.132-2.6 18.994-3.084 38.513.901 57.366 2.04 9.186 5.165 18.329 10.706 26.046 4.178 5.704 10.454 10.628 17.794 10.836 7.243.193 13.848-3.842 18.954-8.66 7.185-6.852 12.467-15.419 16.96-24.197 19.868-38.533 40.227-76.806 61.399-114.635 15.268-26.839 30.286-53.915 48.196-79.114 12.022-15.5 25.785-29.55 39.505-43.544 6.56-6.501 13.003-13.128 19.902-19.271-24.447 33.448-46.252 68.923-64.06 106.356-8.287 17.526-15.596 35.548-21.188 54.13-5.025 16.234-7.314 33.158-12.395 49.385-11.66 39.342-28.941 76.783-48.275 112.894a998.936 998.936 0 01-68.526 109.282c-9.44 12.684-17.272 26.617-22.631 41.507-5.138 14.316-8.41 29.592-7.376 44.855.638 6.567 1.789 13.811 6.81 18.569 3.314 3.071 8.421 1.772 11.558-.882 6.667-5.735 12.52-12.336 18.44-18.812 28.147-31.806 52.897-66.56 74.563-103.064 30.963-52.377 55.316-109.07 68.346-168.636 3.197-15.207 5.688-30.564 8.997-45.755 12.07-56.792 28.588-112.831 52.068-165.994 6.583-14.464 13.291-28.96 21.677-42.48-13.06 38.524-25.126 77.47-33.881 117.227-3.792 17.736-7.096 35.659-8.166 53.796-.899 14.18.555 28.598 5.018 42.124 1.84 4.895 4.346 10.441 9.536 12.5 5.498 1.769 10.818-2.188 14.297-6.077 3.5-5.123 7.724-10.11 8.876-16.408 2.794-13.23-2.412-26.332-1.872-39.6.515-27.537 8.368-54.802 21.373-78.999-2.923 16.286-5.431 32.713-5.958 49.28-.857 20.714.448 41.51 3.836 61.96 1.222 8.149 3.498 16.091 4.757 24.238 5.645 32.709 4.618 66.754-4.578 98.73-6.278 22.06-16.259 43.064-29.346 61.9-9.759 13.666-20.619 26.951-34.329 36.835 5.873-35.464 11.04-71.09 13.676-106.946.708-11.627 1.29-23.324.303-34.941-.557-4.674-.992-9.637-3.648-13.668-1.584-2.447-4.886-2.27-6.93-.561-5.457 4.107-8.968 10.159-12.54 15.858-17.763 30.597-29.46 64.135-44.155 96.208-17.687 39.146-37.26 77.523-60.218 113.862-12.662 20-26.347 39.39-41.677 57.447-14.188 16.59-29.745 32.302-47.991 44.444-10.211 6.626-21.445 12.204-33.59 14.043-10.334 1.58-21.51-.604-29.705-7.318-5.265-5.324-9.76-11.862-10.605-19.482-2.273-16.872 2.778-33.661 8.36-49.412 12.203-32.147 29.672-62.03 48.758-90.534-14.11-20.708-25.83-42.995-35.79-65.962-13.844-32.395-23.805-66.788-26.172-102.044-1.425-21.092.092-42.444 5.295-62.964 4.787-18.323 11.969-36.35 23.552-51.501zM853.062 1239.027c3.187-7.415 8.632-14.635 16.667-17.055 6.93-2.199 14.617.464 19.642 5.48 8.099 7.879 11.492 19.285 12.314 30.291 1.315 17.78-2.962 35.364-7.804 52.334-3.42 11.306-6.846 22.655-11.07 33.697 5.426 7.393 8.647 16.091 11.022 24.893 4.804 17.688 6.942 35.977 8.185 54.233 2.471 38.946.525 78.023-2.701 116.865-3.264 39.044-8.015 77.944-12.77 116.821-2.047 15.638-3.905 31.311-7.007 46.784-.524 2.488-1.125 4.972-1.952 7.386-3.366-10.208-4.664-20.95-6.418-31.516a3756.098 3756.098 0 01-14.377-110.026c-4.831-43.37-8.733-86.978-7.855-130.663.607-23.576 2.233-47.321 8.173-70.226 2.589-9.2 5.49-18.854 12.277-25.922-7.5-20.581-15.18-41.304-18.921-62.973-2.118-13.381-2.603-27.633 2.595-40.403z"/><path d="M1818.845 554.53c.739-6.117.64-12.41 2.501-18.337 4.972 4.035 5.293 10.712 5.943 16.572 1.476 16.517 1.48 33.114 1.67 49.673.492 31.979-2.475 63.989-8.565 95.372-6.998 35.438-18.112 70.286-35.32 102.14-17.884 33.36-43.056 63.253-74.88 84.06-17.609 11.372-36.58 20.866-56.682 26.93-16.817 5.006-34.668 7.368-52.119 4.82-23.514-3.264-45.85-16.276-59.167-36.079 16.531 6.771 34.41 10.42 52.29 10.2 15.183-.167 30.258-3.846 43.828-10.654 10.461-5.245 20.803-11.694 27.883-21.228 3.694-4.894 5.854-11.899 2.626-17.596-4.217-7.154-12.389-10.404-19.891-12.917-17.95-5.41-36.834-6.364-55.443-7.148-24.816-.635-50.606.643-73.45 11.308-19.87 9.388-34.87 26.392-47.08 44.23-6.763 10.047-12.652 20.653-17.72 31.648-.878 2.042-2.142 4.033-2.046 6.35-.877-5.259.156-10.574.867-15.787 2.137-12.907 5.982-25.472 10.625-37.681 2.76-6.815 5.136-13.93 9.576-19.885 7.497-10.216 18.33-17.363 29.474-23.063 15.967-8.007 33.078-13.39 50.242-18.18 23.374-6.53 47.18-11.452 70.448-18.414 35.096-10.642 72-17.038 104.333-35.188 11.955-6.621 23.116-14.67 33.289-23.805 7.523-6.865 14.85-14.095 20.492-22.63 9.396-14.106 15.597-30.078 20.372-46.265 9.31-32.023 13.07-65.316 15.904-98.446zM980.873 1213.398c40.161 7.822 80.89 12.54 121.698 15.332 78.912 5.185 158.73 2.513 236.42-12.984 23.506-4.738 46.775-10.706 69.55-18.2 63.615-21.434 126.36-46.453 184.745-79.828 21.04-12.265 41.661-25.516 60.123-41.472 3.754-3.148 7.056-6.806 10.957-9.789-20.54 37.188-42.35 73.749-67.004 108.381-13.768 19.328-28.348 38.147-44.71 55.362-8.32 8.461-16.61 17.249-26.96 23.232-16.89 9.82-35.984 15.028-55.003 18.838-38.09 7.247-77.017 8.634-115.693 8.257-35.958-.484-71.872-2.878-107.608-6.697-37.471-4.115-74.856-9.525-111.638-17.855-38.87-8.565-77.64-17.665-115.966-28.422-10.575-3.053-21.18-6.096-31.493-9.989-2.628-1.066-5.468-2.015-7.418-4.166zM966.007 1270.242c-.018-3.12 3.407-4.644 5.58-6.263 10.727-7.206 24.208-7.843 36.706-7.169 21.05 1.38 41.635 6.535 61.834 12.398 37.654 11.192 74.175 25.832 110.243 41.306 11.585 4.892 23.887 9.205 36.636 8.823 10.985-.347 21.166-4.961 31.104-9.197 10.386-4.555 21.053-8.495 32.052-11.278 9.457-2.363 19.229-4.536 29.035-3.365 9.201.96 18.087 5.832 23.091 13.748 6.326 9.973 8.011 22.281 7.121 33.881-8.799-16.078-24.78-29.174-43.506-30.704-16.995-2.15-34.425 9.935-38.181 26.675-2.484 9.88 1.31 20.718 9 27.306 10.36 8.97 24.103 13.399 37.667 14.019 16.95.691 33.68-4.063 48.954-11.123 13.218-6.175 25.532-14.144 37.03-23.1a213.285 213.285 0 0130.76-20.682c8.423-4.52 17.22-8.735 26.69-10.51 4.056-.685 8.774-.864 12.152 1.924 2.95 2.981 2.643 7.547 1.81 11.333-2.095 8.91-6.777 16.909-11.435 24.69-22.888 36.735-55.822 66.371-92.06 89.584-8.917 5.383-17.837 11.316-28.136 13.618-8.454 2.02-17.5.984-25.4-2.554-10.472-4.646-19.157-12.378-27.298-20.263-15.4-15.304-29.36-31.957-44.578-47.433-28.255-29.366-60.654-55.035-97.008-73.655-19.465-10.086-39.888-18.27-60.819-24.736-24.752-8.255-51.007-9.829-76.846-11.511-8.946-.664-17.968-.91-26.773-2.746-1.964-.588-4.458-.983-5.425-3.016zM975.834 1443.366c-9.023-38.357-20.545-76.123-33.85-113.206 8.758 13.112 15.206 27.608 21.886 41.846 27.143 60.503 45.346 124.69 58.015 189.686 10.816 62.05 34.313 121.406 65.284 176.084 22.779 40.078 49.355 78.058 79.695 112.786 6.639 7.503 13.41 14.933 20.798 21.733 2.882 2.62 6.993 5.104 10.984 3.522 4.366-1.933 6.284-6.758 7.494-11.06 2.591-10.308 1.742-21.132-.043-31.489-3.334-17.854-10.43-34.892-19.917-50.338-5.398-8.818-11.954-16.83-17.783-25.342-28.67-40.761-54.664-83.474-76.674-128.199-17.247-35.4-32.213-72.275-40.161-110.978-4.554-20.447-11.725-40.228-20.101-59.404-18.982-42.797-43.638-82.906-71.34-120.577 20.023 18.85 39.61 38.271 57.272 59.376 13.476 17.546 24.57 36.765 35.937 55.696 26.103 44.66 50.718 90.182 74.771 135.971 5.265 10.422 11.067 20.88 19.648 28.976 4.886 4.558 11.063 8.374 17.94 8.527 5.55.189 10.824-2.516 14.747-6.31 5.88-5.739 9.465-13.374 12.021-21.07 6.534-20.856 6.268-43.19 3.483-64.659-1.354-9.556-2.836-19.216-6.773-28.094-7.87-18.17-20.597-33.709-34.028-48.03-17.582-18.44-37.11-34.921-57.283-50.44-32.27-24.82-66.447-47.025-101.138-68.29 10.136 3.452 20.112 7.394 30.313 10.698 10.604 3.665 21.54 6.365 32.058 10.317 14.271 5.245 28.331 11.23 41.445 18.997 12.112 6.766 24.288 13.398 36.372 20.21 31.108 17.596 62.339 35.761 88.96 59.87 15.01 13.75 28.29 29.936 36.02 48.944 8.57 19.89 13.182 41.376 14.268 62.968 1.647 32.952-4.412 65.893-14.593 97.141-11.252 33.856-26.887 66.288-46.614 96.011 17.26 25.207 32.904 51.658 45.074 79.719 6.548 15.64 12.355 31.978 13.362 49.04.572 10.196-1.502 21.253-8.93 28.769l-6.32 4.672c-11.364 6.731-25.486 5.828-37.512 1.485-18.3-6.608-33.883-18.878-47.963-32.024-30.868-29.587-55.213-65.188-77.033-101.747-25.125-42.46-46.291-87.137-65.375-132.595-8.267-19.095-16.696-38.207-27.344-56.115-3.578-5.6-7.112-11.592-12.663-15.436-1.96-1.523-5.176-1.434-6.52.853-2.207 3.172-2.73 7.14-3.293 10.888-1.289 11.398-.694 22.92-.035 34.345 2.702 37.022 8.241 73.776 14.53 110.335-9.449-6.595-17.329-15.12-24.733-23.86-15.46-18.667-27.594-40.065-35.73-62.887-11.856-32.968-14.795-68.846-9.942-103.469 1.642-13.375 5.444-26.368 6.897-39.764 4.472-34.18 3.257-69.205-4.291-102.857 7.502 12.423 12.464 26.239 16.394 40.17 4.883 18.588 7.628 38.22 4.241 57.31-1.041 7.323-1.707 14.903.092 22.166 1.366 5.903 5.435 10.618 8.84 15.462 3.493 3.935 8.96 7.766 14.442 5.829 5.387-2.403 7.757-8.332 9.612-13.545 3.955-12.92 5.334-26.585 4.467-40.057-1.186-19.777-5.024-39.273-9.38-58.56z"/><path d="M1171.014 1209.57c42.508-10.859 84.352-24.25 125.503-39.453 39.443-14.602 78.227-31.04 115.892-49.799 42.26-21.072 83.147-45.146 120.925-73.561 78.814-58.395 157.334-117.205 235.62-176.316-14.343 34.2-30.02 67.87-47.706 100.474-6.28 11.406-12.834 22.677-20.053 33.52-4.685 7.156-10.973 13.084-17.374 18.672-18.367 15.563-38.814 28.41-59.427 40.748-42.806 25.18-87.378 47.227-132.616 67.652-40.203 17.899-80.93 34.853-122.945 48.047-58.07 17.512-118.488 26.55-178.98 29.698-6.283.13-12.58.83-18.839.319z"/></g></svg>